<?xml version="1.0" standalone="no"?>
<!DOCTYPE svg PUBLIC "-//W3C//DTD SVG 1.1//EN" "http://www.w3.org/Graphics/SVG/1.1/DTD/svg11.dtd">
<svg t="1701914873867" class="icon" viewBox="0 0 1024 1024" version="1.1"
    xmlns="http://www.w3.org/2000/svg" p-id="4199" xmlns:xlink="http://www.w3.org/1999/xlink"
    width="200" height="200">
    <path
        d="M812.3 932.1h-600c-18.6 0.7-32.9 14.5-32.9 32.5 0 17.3 14.3 31.8 32.9 31.8h600c17.9 0 32.1-14.5 32.1-31.8 0-17.9-14.3-31.8-32.1-32.5zM845.6 27.5H178.4C87 27.5 12 95.3 12 178.4V717c0 83.1 75 150.2 166.4 150.2h667.1c91.4 0 166.4-67.2 166.4-150.2V178.4C1012 95.3 937 27.5 845.6 27.5z m99.5 689.1c0 47.8-44.3 86.5-100 86.5H178.7c-55 0-100-38.8-100-86.5V178c0-47.1 45-85.8 100-85.8h666.4c55.7 0 100 38.8 100 85.8v538.6z"
        fill="" p-id="4200"></path>
    <path
        d="M457.5 537.8l5.7 3.5 2.9 1.4c10.7 4.8 23.6 0 30-10.4l96.4-174.5c6.4-11.8 2.1-26.3-9.3-33.2l-5.7-3.5c-11.4-6.2-25.7-2.1-32.9 9.7l-96.4 173.8c-6.5 11.7-2.2 26.2 9.3 33.2zM288.2 538.5c10 8.3 24.3 7.6 33.6-1.4 9.3-10.4 9.3-26.3 0-36.7l-67.1-69.2 66.4-69.2 1.4-2.1c7.9-9.7 7.9-24.2-1.4-33.9l-2.1-2.1c-9.3-8.3-24.3-7.6-32.9 2.1l-83.6 86.5-1.4 2.1c-7.9 11.1-7.1 25.6 1.4 35.3l84.3 87.2 1.4 1.4zM704.6 538.4c10 8.3 23.6 7.6 32.9-1.4l83.6-87.2 2.1-2.1c3.6-4.8 5.7-10.4 5.7-16.6 0-6.9-2.9-13.2-7.9-18l-83.6-87.2-2.1-2.1c-9.3-8.3-24.3-7.6-32.9 2.1-9.3 10.4-9.3 26.3 0 36l66.4 69.2-66.4 69.2-1.4 2.1c-7.9 10.4-7.1 24.9 1.4 33.9l2.2 2.1z"
        fill="" p-id="4201"></path>
</svg>