<?xml version="1.0" standalone="no"?>
<!DOCTYPE svg PUBLIC "-//W3C//DTD SVG 1.1//EN" "http://www.w3.org/Graphics/SVG/1.1/DTD/svg11.dtd">
<svg t="1701914870108" class="icon" viewBox="0 0 1024 1024" version="1.1"
    xmlns="http://www.w3.org/2000/svg" p-id="4048" xmlns:xlink="http://www.w3.org/1999/xlink"
    width="200" height="200">
    <path
        d="M501.76 488.96L338.56 326.4c-10.24-10.24-28.8-8.32-40.96 4.48-12.8 12.8-14.08 30.72-4.48 40.96l140.8 140.16-140.16 140.16c-10.24 10.24-8.32 28.8 4.48 40.96 12.8 12.8 30.72 14.08 40.96 4.48l139.52-140.8 22.4-22.4c12.8-12.8 12.8-32.64 0.64-45.44z"
        fill="" p-id="4049"></path>
    <path
        d="M159.36 160h704v288h64V128c0-17.92-14.08-32-32-32h-768c-17.92 0-32 14.08-32 32v768c0 17.92 14.08 32 32 32h320v-64h-288V160z"
        fill="" p-id="4050"></path>
    <path
        d="M522.88 992c-8.32 0-16.64-3.2-22.4-9.6-8.32-8.32-11.52-19.84-8.32-30.72l33.28-123.52c1.28-5.12 4.48-10.24 8.32-14.08l312.96-312.96c12.8-12.8 32.64-12.8 45.44 0l90.24 90.24c12.8 12.8 12.8 32.64 0 45.44l-312.96 312.96c-3.84 3.84-8.96 7.04-14.08 8.32L531.2 990.72c-2.56 0.64-5.12 1.28-8.32 1.28z m62.08-138.88l-16.64 62.08 62.08-16.64L915.2 613.76l-45.44-45.44-284.8 284.8z"
        fill="" p-id="4051"></path>
</svg>