<?xml version="1.0" standalone="no"?><!DOCTYPE svg PUBLIC "-//W3C//DTD SVG 1.1//EN" "http://www.w3.org/Graphics/SVG/1.1/DTD/svg11.dtd"><svg t="1701914884477" class="icon" viewBox="0 0 1024 1024" version="1.1" xmlns="http://www.w3.org/2000/svg" p-id="4502" xmlns:xlink="http://www.w3.org/1999/xlink" width="200" height="200"><path d="M780.8 851.968H289.792c-18.432 1.536-32.768 16.384-32.768 34.816s13.824 33.792 32.768 34.816h491.008c13.312 1.024 26.112-5.632 32.768-16.896 7.168-11.264 7.168-25.088 0-36.352a34.6624 34.6624 0 0 0-32.768-16.384z m0 0M535.04 123.904s170.496-7.168 172.032 104.448h72.192s-2.048-159.744-244.224-104.448z" p-id="4503"></path><path d="M750.592 312.832l69.632-84.48c2.56-3.072 0.512-7.168-3.584-7.168h-152.064c-3.584 0-5.632 4.096-3.584 7.168l69.632 84.48c5.12 6.144 14.336 6.144 19.968 0z" p-id="4504"></path><path d="M860.16 256h-24.576l-76.288 92.672a25.6 25.6 0 0 1-39.936 0L643.072 256h-80.384v123.392c0 16.896-13.312 30.208-30.208 30.208H153.088v325.12c0 33.792 27.136 60.928 60.928 60.928H860.16c33.792 0 60.928-27.136 60.928-60.928V316.928c0-33.28-27.136-60.928-60.928-60.928z m-462.848 373.248c7.68 7.68 7.68 19.968 0 27.136s-19.968 7.68-27.136 0l-69.12-69.12a17.3568 17.3568 0 0 1-5.12-14.336c0-5.12 1.536-10.24 5.12-14.336l69.12-69.12c7.68-7.68 19.968-7.68 27.136 0s7.68 19.968 0 27.136l-56.32 56.32 56.32 56.32z m199.168-138.24l-86.016 183.296c-5.632 11.776-19.456 16.896-31.232 11.264a23.3472 23.3472 0 0 1-11.264-31.232l86.016-183.296c5.632-11.776 19.456-16.896 31.232-11.264 11.776 5.632 16.896 19.456 11.264 31.232z m177.664 96.256l-69.12 69.12c-7.68 7.68-19.968 7.68-27.136 0s-7.68-19.968 0-27.136l56.32-56.32-56.32-56.32c-7.68-7.68-7.68-19.968 0-27.136s19.968-7.68 27.136 0l69.12 69.12c4.096 4.096 5.632 9.216 5.12 14.336 0.512 5.12-1.024 10.24-5.12 14.336z" p-id="4505"></path><path d="M500.736 102.4H128.512c-14.848 0-26.624 11.776-26.624 26.112V348.16c0 14.336 11.776 26.112 26.112 26.112h372.224c14.336 0 26.112-11.776 26.112-26.112V128.512a25.4464 25.4464 0 0 0-25.6-26.112zM197.632 168.96c12.8 0 23.04 10.24 23.04 23.04s-10.24 23.04-23.04 23.04-23.04-10.24-23.04-23.04 10.24-23.04 23.04-23.04z m144.896 140.8H196.608c-12.288 0-22.016-9.728-22.016-22.016s9.728-22.016 22.016-22.016h145.92c12.288 0 22.016 9.728 22.016 22.016 0 11.776-9.728 22.016-22.016 22.016z m80.896 1.024c-12.8 0-23.04-10.24-23.04-23.04s10.24-23.04 23.04-23.04 23.04 10.24 23.04 23.04-10.752 23.04-23.04 23.04z m1.024-97.28H278.016c-12.288 0-22.016-9.728-22.016-22.016s9.728-22.016 22.016-22.016h145.92c12.288 0 22.016 9.728 22.016 22.016s-9.728 22.016-21.504 22.016z" p-id="4506"></path></svg>