<?xml version="1.0" standalone="no"?><!DOCTYPE svg PUBLIC "-//W3C//DTD SVG 1.1//EN" "http://www.w3.org/Graphics/SVG/1.1/DTD/svg11.dtd"><svg t="1701914863029" class="icon" viewBox="0 0 1024 1024" version="1.1" xmlns="http://www.w3.org/2000/svg" p-id="3894" xmlns:xlink="http://www.w3.org/1999/xlink" width="200" height="200"><path d="M352 281.71h124.15v124.15H352zM352 451.85h124.15V576H352zM496.42 343.787L584.209 256l87.787 87.787-87.787 87.788zM522.13 451.85h124.15V576H522.13z" p-id="3895"></path><path d="M832 128H192a64.19 64.19 0 0 0-64 64v640a64.19 64.19 0 0 0 64 64h640a64.19 64.19 0 0 0 64-64V192a64.19 64.19 0 0 0-64-64z m0 544H640a128 128 0 0 1-256 0H192V192h640z" p-id="3896"></path></svg>