<?xml version="1.0" standalone="no"?>
<!DOCTYPE svg PUBLIC "-//W3C//DTD SVG 1.1//EN" "http://www.w3.org/Graphics/SVG/1.1/DTD/svg11.dtd">
<svg class="icon" width="64px" height="64.00px" viewBox="0 0 1024 1024" version="1.1"
    xmlns="http://www.w3.org/2000/svg">
    <path
        d="M157.69999999 485.49999999h632.70000001L559.6 254.8c-11.70000001-11.70000001-11.70000001-30.8 0-42.4 11.70000001-11.70000001 30.8-11.70000001 42.4 0l277.4 277.4c6.2 6.2 9.10000001 14.50000001 8.70000001 22.6 0.4 8.2-2.50000001 16.4-8.70000001 22.6L602.70000001 811.70000001c-11.70000001 11.70000001-30.8 11.70000001-42.40000002-2e-8-11.70000001-11.70000001-11.70000001-30.8 0-42.4L784 545.50000001H157.69999999c-16.50000001 0-30-13.50000001-29.99999998-30.00000002s13.50000001-30 30-29.99999998z"
        fill="" />
</svg>