<?xml version="1.0" standalone="no"?>
<!DOCTYPE svg PUBLIC "-//W3C//DTD SVG 1.1//EN" "http://www.w3.org/Graphics/SVG/1.1/DTD/svg11.dtd">
<svg class="icon" width="200px" height="200.00px" viewBox="0 0 1024 1024" version="1.1"
    xmlns="http://www.w3.org/2000/svg">
    <path fill=""
        d="M858.2 485.5H225.5l230.8-230.8c11.7-11.7 11.7-30.8 0-42.4-11.7-11.7-30.8-11.7-42.4 0L136.5 489.7c-6.2 6.2-9.1 14.5-8.7 22.6-0.4 8.2 2.5 16.4 8.7 22.6l276.8 276.8c11.7 11.7 30.8 11.7 42.4 0 11.7-11.7 11.7-30.8 0-42.4L231.9 545.5h626.3c16.5 0 30-13.5 30-30s-13.5-30-30-30z" />
</svg>