<?xml version="1.0" standalone="no"?>
<!DOCTYPE svg PUBLIC "-//W3C//DTD SVG 1.1//EN" "http://www.w3.org/Graphics/SVG/1.1/DTD/svg11.dtd">
<svg class="icon" width="64px" height="64.00px" viewBox="0 0 1024 1024" version="1.1"
    xmlns="http://www.w3.org/2000/svg">
    <path
        d="M861.99999969 111.99999969H321.99999969a50.05624969 50.05624969 0 0 0-49.99999969 50.00000062v109.99999969H162.00000031a50.05624969 50.05624969 0 0 0-50.00000062 49.99999969v540a50.05624969 50.05624969 0 0 0 50.00000062 50.00000062h540a50.05624969 50.05624969 0 0 0 49.99999969-50.00000062v-109.99999969h109.99999969a50.05624969 50.05624969 0 0 0 50.00000062-49.99999969V162.00000031a50.05624969 50.05624969 0 0 0-50.00000062-50.00000062z m-150 750a10.00000031 10.00000031 0 0 1-9.99999938 10.00000031H162.00000031a10.00000031 10.00000031 0 0 1-10.00000031-10.00000031V321.99999969a10.00000031 10.00000031 0 0 1 10.00000031-9.99999938h540a10.00000031 10.00000031 0 0 1 9.99999938 9.99999938z m160.00000031-159.99999938a10.00000031 10.00000031 0 0 1-10.00000031 9.99999938h-109.99999969V321.99999969a50.05624969 50.05624969 0 0 0-49.99999969-49.99999969H312.00000031V162.00000031a10.00000031 10.00000031 0 0 1 9.99999938-10.00000031h540a10.00000031 10.00000031 0 0 1 10.00000031 10.00000031z"
        fill="" />
</svg>