<?xml version="1.0" standalone="no"?>
<!DOCTYPE svg PUBLIC "-//W3C//DTD SVG 1.1//EN" "http://www.w3.org/Graphics/SVG/1.1/DTD/svg11.dtd">
<svg class="icon" width="64px" height="61.54px" viewBox="0 0 1065 1024" version="1.1"
    xmlns="http://www.w3.org/2000/svg">
    <path
        d="M899.47806406 104.87290343h-748.441935c-23.13387094 0-41.88774188 18.75387094-41.88774187 41.88774188v724.79806406c0 23.13387094 18.75387094 41.88774188 41.88774187 41.88774188h748.441935c23.13290343 0 41.88774188-18.75387094 41.88774281-41.88774188V146.76064531c0-23.13387094-18.75483844-41.88774188-41.88774281-41.88774188z m-2.16677344 725.58096751c0 21.05129063-17.06612906 38.11741969-38.11741968 38.11741969H191.32032219c-21.05129063 0-38.11741969-17.06612906-38.11741876-38.11741969V187.86645125c0-21.05129063 17.06612906-38.11645125 38.11741876-38.11645125h667.87354875c21.05129063 0 38.11741969 17.06516156 38.11741969 38.11645125v642.58741969z"
        fill="" />
</svg>