<?xml version="1.0" standalone="no"?><!DOCTYPE svg PUBLIC "-//W3C//DTD SVG 1.1//EN" "http://www.w3.org/Graphics/SVG/1.1/DTD/svg11.dtd"><svg t="1701950399229" class="icon" viewBox="0 0 1024 1024" version="1.1" xmlns="http://www.w3.org/2000/svg" p-id="10284" xmlns:xlink="http://www.w3.org/1999/xlink" width="200" height="200"><path d="M850.2 226.32H737.32a66.55 66.55 0 0 0-2.47-8.76c-72.29-204.3-373.41-204.3-445.7 0a66.55 66.55 0 0 0-2.47 8.76H173.8a26.07 26.07 0 0 0-26.07 26.07 26.07 26.07 0 0 0 26.07 26.07h33.83l35.9 600.61a85.72 85.72 0 0 0 85.56 80.6h369.47a85.72 85.72 0 0 0 85.59-81.11l32.28-600.1h33.77a26.07 26.07 0 0 0 26.07-26.07 26.07 26.07 0 0 0-26.07-26.07zM435.33 784.53a26.46 26.46 0 0 1-52.92 0v-321a26.46 26.46 0 0 1 52.92 0z m206.26 0a26.46 26.46 0 0 1-52.92 0v-321a26.46 26.46 0 0 1 52.92 0z m-305-558.21c61.79-152.92 289.13-152.92 350.92 0z" fill="#FFA56A" p-id="10285"></path><path d="M606.73 311.52c-175.87 0-325.5 112.35-381 269.19l17.84 298.36a85.61 85.61 0 0 0 4.63 23.1q7.22 13.86 15.46 27.08a85.6 85.6 0 0 0 65.47 30.42h369.43a85.72 85.72 0 0 0 85.59-81.11l27.5-511.3a402.19 402.19 0 0 0-204.92-55.74z m-171.4 473a26.46 26.46 0 0 1-52.92 0v-321a26.46 26.46 0 0 1 52.92 0z m206.26 0a26.46 26.46 0 0 1-52.92 0v-321a26.46 26.46 0 0 1 52.92 0z" fill="#FF9552" p-id="10286"></path><path d="M715.62 471.61a379.3 379.3 0 0 0-74 7.26v305.66a26.46 26.46 0 0 1-52.92 0v-291a377.71 377.71 0 0 0-153.37 102.8v188.2a26.46 26.46 0 0 1-52.92 0V671.74a378.5 378.5 0 0 0-27.59 287.93h343.74a85.72 85.72 0 0 0 85.59-81.11l21.31-396.19a378.34 378.34 0 0 0-89.84-10.76z" fill="#FF7E3E" p-id="10287"></path><path d="M641.59 670.62v113.91a26.46 26.46 0 0 1-52.92 0v-66.08a375.93 375.93 0 0 0-98.8 241.22h208.69a85.72 85.72 0 0 0 85.59-81.11L799 602.06a375.34 375.34 0 0 0-157.41 68.56z" fill="#FC7032" p-id="10288"></path><path d="M403.18 280.24c7.56 11.34-32.18 25.35-74.11 53.29s-70.16 59.22-77.71 47.87 15.62-50.2 57.55-78.14 86.72-34.36 94.27-23.02z" fill="#FFFFFF" p-id="10289"></path></svg>