<?xml version="1.0" standalone="no"?><!DOCTYPE svg PUBLIC "-//W3C//DTD SVG 1.1//EN" "http://www.w3.org/Graphics/SVG/1.1/DTD/svg11.dtd"><svg t="1701947967004" class="icon" viewBox="0 0 1024 1024" version="1.1" xmlns="http://www.w3.org/2000/svg" p-id="1833" xmlns:xlink="http://www.w3.org/1999/xlink" width="200" height="200"><path d="M285.0816 264.448s-231.4752 146.688-20.7872 475.3408C404.48 968.3968 644.8128 927.1296 732.16 873.3696S984.6784 624.64 761.9072 354.304c-237.4656-288.4096-476.8256-89.856-476.8256-89.856z" fill="#BBDB4A" p-id="1834"></path><path d="M589.824 790.9376C314.8288 706.56 246.272 438.016 228.096 320.9728 176.6912 390.8608 128 527.36 264.2944 739.7888 404.48 968.3968 644.8128 927.1296 732.16 873.3696c39.8848-24.6272 96.1536-78.7968 124.16-156.2624-92.5696 62.4128-202.496 91.8528-266.496 73.8304z" fill="#A3BF2C" p-id="1835"></path><path d="M589.824 790.9376C314.8288 706.56 246.272 438.016 228.096 320.9728 176.6912 390.8608 128 527.36 264.2944 739.7888 404.48 968.3968 644.8128 927.1296 732.16 873.3696c39.8848-24.6272 96.1536-78.7968 124.16-156.2624-92.5696 62.4128-202.496 91.8528-266.496 73.8304z" fill="#A3BF2C" p-id="1836"></path><path d="M564.6848 930.816a366.8992 366.8992 0 0 1-85.1968-9.8304c-93.44-22.2208-172.3904-81.92-228.3008-173.1584C174.08 627.3024 145.664 516.3008 167.424 418.2016a277.0432 277.0432 0 0 1 108.5952-166.1952c9.9328-7.9872 103.6288-80.384 231.936-68.1984 96.1024 9.1648 185.4976 63.232 265.8304 160.7168 90.88 110.4384 128 219.4944 110.7968 324.2496s-88.832 183.1936-144.5888 217.6512c-40.3968 24.9344-104.5504 44.3904-175.3088 44.3904z m-271.36-653.4144a245.76 245.76 0 0 0-84.0192 108.7488c-38.4512 96.6144-15.0016 216.064 67.8912 345.344 52.48 85.4016 122.88 139.008 209.408 159.6416 92.928 22.0672 188.1088-0.512 237.2096-30.72 50.2784-31.0272 114.6368-101.12 130.4576-196.5568s-19.2-196.4032-104.2432-299.6224C655.616 249.3952 550.6048 199.68 438.016 216.2176A321.024 321.024 0 0 0 294.8608 276.48a10.752 10.752 0 0 1-1.536 0.9216z m-8.2432-12.9536z" fill="#000F04" p-id="1837"></path><path d="M231.5776 353.9456l-94.208-2.6624L207.872 457.5232M215.808 523.9808l-80.7936 108.544 111.616 20.0704M334.7968 742.2464L288.8192 839.68l111.2064-26.88M438.9376 855.3472l65.792 94.6688 53.0432-72.96M734.1056 813.9264l101.1712 12.4928-43.6224-80.0256" fill="#A3BF2C" p-id="1838"></path><path d="M779.8272 430.3872l118.3232 26.7264-66.9696 67.5328M837.5808 568.3712l58.2144 106.7008-95.7952-16.9984M658.688 309.248l110.4384-13.824-9.8304 97.3824M505.9584 236.8l156.7232-44.3392-36.864 78.08M348.3136 253.5424l21.4016-110.7456 71.7824 85.4528" fill="#BBDB4A" p-id="1839"></path><path d="M290.9184 306.8928s-98.8672-94.7712-61.0816-197.12C244.8896 98.4064 281.6 96.4608 302.08 120.7808c-10.24 35.84-33.1264 95.1296 24.7296 166.6048-24.1152 20.9408-35.8912 19.5072-35.8912 19.5072z" fill="#A2DD9E" p-id="1840"></path><path d="M291.5328 322.2528h-2.4576a15.36 15.36 0 0 1-8.8064-4.1984C275.968 313.8048 174.6432 215.04 215.3984 104.448a15.36 15.36 0 0 1 5.12-6.9632c20.48-15.36 66.9184-17.8688 93.1328 13.4656a15.36 15.36 0 0 1 2.9184 14.1824l-1.8432 6.1952c-10.8544 35.84-25.6 85.1968 23.8592 146.3808a15.36 15.36 0 0 1-1.8432 21.248c-23.0912 20.1728-38.144 23.296-45.2096 23.296z m-49.0496-202.1888c-24.5248 76.4928 34.56 149.1968 53.4528 169.8816a61.44 61.44 0 0 0 9.3696-5.12c-46.9504-66.56-31.5392-123.5968-20.7872-159.3344a45.312 45.312 0 0 0-42.0352-5.4272zM207.9232 472.8832A15.36 15.36 0 0 1 195.072 465.92L124.5696 359.7824a15.36 15.36 0 0 1-0.8192-15.36 15.36 15.36 0 0 1 13.312-8.2432l132.1472-2.8672h0.3072a15.36 15.36 0 0 1 0.3072 30.72l-104.2432 2.2528L220.672 449.024a15.36 15.36 0 0 1-4.3008 21.2992 15.36 15.36 0 0 1-8.448 2.56z" fill="#000F04" p-id="1841"></path><path d="M348.16 268.9024a18.7392 18.7392 0 0 1-2.9184-0.256A15.36 15.36 0 0 1 333.2608 250.88l21.4016-110.7456A15.36 15.36 0 0 1 381.4912 133.12l71.68 85.4528a15.36 15.36 0 1 1-23.5008 19.7632L378.88 177.3568l-15.36 79.104a15.36 15.36 0 0 1-15.36 12.4416zM246.6304 667.9552a16.128 16.128 0 0 1-2.7136 0l-111.616-20.0704a15.36 15.36 0 0 1-9.4208-24.5248l80.8448-108.544a15.36 15.36 0 0 1 24.6272 18.3296l-66.2016 88.6784 87.04 15.6672a15.36 15.36 0 0 1-2.7136 30.72zM288.8192 855.04a15.36 15.36 0 0 1-13.8752-21.9136l46.08-97.28a15.36 15.36 0 0 1 27.8016 13.1072l-32.4096 68.2496 79.9744-19.3536a15.36 15.36 0 1 1 7.2192 29.8496l-111.1552 26.88a14.4384 14.4384 0 0 1-3.6352 0.4608zM504.7296 965.376a15.36 15.36 0 0 1-12.4416-6.6048l-65.9456-94.6688a15.36 15.36 0 1 1 25.2416-17.5104l53.4528 76.8 40.2944-55.4496a15.36 15.36 0 0 1 24.832 18.0736L517.12 959.0784a15.36 15.36 0 0 1-12.3904 6.2976zM835.2768 841.7792h-1.8432L732.16 829.44a15.36 15.36 0 1 1 3.7888-30.464l71.68 8.8064-29.3888-54.016a15.36 15.36 0 0 1 26.9312-14.7456l43.6224 80.1792a15.36 15.36 0 0 1-13.5168 22.7328zM896 690.432a12.1856 12.1856 0 0 1-2.7136 0l-95.744-16.9472a15.36 15.36 0 0 1 5.12-30.2592l64.3072 11.4176-42.6496-78.8992a15.36 15.36 0 0 1 26.9824-14.7456l58.1632 106.7008a15.36 15.36 0 0 1-13.4656 22.7328zM831.1808 540.0064a15.36 15.36 0 0 1-10.9056-26.1632l47.4624-47.9232-91.2896-20.48a15.36 15.36 0 1 1 6.912-30.0032l118.3232 26.6752a15.36 15.36 0 0 1 7.5264 25.6l-66.9696 67.5328a15.36 15.36 0 0 1-11.0592 4.7616zM759.3472 408.1664H757.76a15.36 15.36 0 0 1-13.7216-16.8448l7.8848-78.1824L660.48 324.5056a15.36 15.36 0 0 1-3.7888-30.72l110.4384-13.7728a15.36 15.36 0 0 1 12.6464 4.2496 15.36 15.36 0 0 1 4.5568 12.544l-9.8304 97.28a15.36 15.36 0 0 1-15.1552 14.08zM625.8176 285.952a15.6672 15.6672 0 0 1-6.5536-1.4848 15.36 15.36 0 0 1-7.3728-20.48l22.4768-47.5648-124.2624 35.1744A15.36 15.36 0 1 1 501.76 222.0544l156.7232-44.3392a15.36 15.36 0 0 1 18.0736 21.2992l-36.864 78.1312a15.36 15.36 0 0 1-13.8752 8.8064zM477.952 481.28a15.36 15.36 0 0 1-15.36-13.4656l-8.0384-65.6384L392.96 455.68a15.36 15.36 0 0 1-20.1216-23.2448L456.192 360.0896a15.36 15.36 0 0 1 25.088 9.728l11.7248 94.3104A15.36 15.36 0 0 1 479.8464 481.28zM473.4976 659.968a15.616 15.616 0 0 1-3.072-0.3072l-98.9696-19.968a15.36 15.36 0 0 1-11.0592-9.0112 15.36 15.36 0 0 1 1.1264-14.2848l47.4112-74.5984a15.36 15.36 0 0 1 25.9584 16.2816L399.36 613.9904l76.8 15.36a15.36 15.36 0 0 1-3.0208 30.4128zM583.3728 552.96a15.36 15.36 0 0 1-14.1312-21.2992l28.7744-68.6592-51.5072 14.2336a15.36 15.36 0 1 1-8.192-29.5936l81.92-22.7328a15.36 15.36 0 0 1 18.3296 20.5312l-40.96 97.8432a15.36 15.36 0 0 1-14.2336 9.6768zM650.24 705.3312h-0.5632a15.36 15.36 0 0 1-14.7968-15.872l2.6624-78.4384-65.792 47.7696a15.36 15.36 0 1 1-18.0224-24.832l91.2384-66.304a15.36 15.36 0 0 1 24.3712 12.9536l-3.7376 109.9264a15.36 15.36 0 0 1-15.36 14.7968zM481.28 820.992a15.36 15.36 0 0 1-14.9504-18.944l21.3504-89.0368a15.36 15.36 0 1 1 29.8496 7.1168l-13.9776 58.4192 60.7232-27.7504a15.36 15.36 0 1 1 12.7488 27.9552l-89.3952 40.96a15.36 15.36 0 0 1-6.3488 1.28zM627.968 885.76a15.36 15.36 0 0 1-11.9296-5.6832l-38.0928-46.848a15.36 15.36 0 1 1 23.808-19.3536l22.528 27.648 21.8112-47.7184a15.36 15.36 0 1 1 27.9552 12.8l-32.1024 70.1952A15.36 15.36 0 0 1 629.76 885.76zM735.7952 581.4272a15.36 15.36 0 0 1-12.4928-24.2688l25.9072-36.4544-46.08-27.0336a15.36 15.36 0 0 1 15.36-26.4704l60.2624 35.5328a15.36 15.36 0 0 1 7.2192 10.24 15.36 15.36 0 0 1-2.5088 12.0832l-35.84 50.1248a15.36 15.36 0 0 1-11.8272 6.2464zM315.1872 570.112a15.36 15.36 0 0 1-10.24-3.84L245.76 513.6896a15.36 15.36 0 0 1-5.12-13.2608 15.36 15.36 0 0 1 7.8848-11.7248L309.0944 455.68a15.36 15.36 0 0 1 14.6944 26.9824l-41.4208 22.5792 43.008 38.0928a15.36 15.36 0 0 1-10.24 26.8288zM354.6112 384.256a15.36 15.36 0 0 1-14.7968-19.6096l19.5584-68.0448A15.36 15.36 0 0 1 384 289.024l41.6256 34.7648a15.36 15.36 0 1 1-19.6608 23.552L382.4128 327.68l-13.056 45.4144a15.36 15.36 0 0 1-14.7456 11.1616zM607.6928 398.3872a15.36 15.36 0 0 1-15.36-13.8752l-4.0448-42.0864-36.5568 15.9744a15.36 15.36 0 1 1-12.2368-28.16l56.0128-24.2176a15.36 15.36 0 0 1 13.8752 0.8192 15.36 15.36 0 0 1 7.5264 11.776l6.0928 63.0784A15.36 15.36 0 0 1 609.28 398.336z" fill="#000F04" p-id="1842"></path></svg>