<?xml version="1.0" standalone="no"?><!DOCTYPE svg PUBLIC "-//W3C//DTD SVG 1.1//EN" "http://www.w3.org/Graphics/SVG/1.1/DTD/svg11.dtd"><svg t="1701947882993" class="icon" viewBox="0 0 1024 1024" version="1.1" xmlns="http://www.w3.org/2000/svg" p-id="1280" xmlns:xlink="http://www.w3.org/1999/xlink" width="200" height="200"><path d="M491.8784 253.3888S478.5152 140.288 573.44 98.9184a469.8112 469.8112 0 0 0 67.9936-33.6896s103.68 99.1744 40.704 247.3472C589.1584 373.76 491.8784 253.3888 491.8784 253.3888z" fill="#BFE5BD" p-id="1281"></path><path d="M596.2752 192.0512c-4.1472-21.8112-35.84-48.384-61.952-67.2256-51.6608 50.0736-42.4448 128.5632-42.4448 128.5632s97.28 120.2176 190.1056 59.1872a232.7552 232.7552 0 0 0 18.4832-122.88c-39.0656-9.6256-79.2064-1.28-104.192 2.3552z" fill="#A2DD9E" p-id="1282"></path><path d="M626.4832 344.9856c-61.44 0-119.2448-48.1792-146.5344-81.92a15.36 15.36 0 0 1-3.328-7.8336c0-1.2288-13.4656-124.9792 90.5216-170.3424l0.7168-0.256a458.752 458.752 0 0 0 65.4336-32.4608 15.36 15.36 0 0 1 18.6368 2.048c1.1264 1.024 110.5408 108.288 44.1856 264.3968a15.36 15.36 0 0 1-5.6832 6.8608 114.4832 114.4832 0 0 1-63.9488 19.5072zM506.88 247.1424c15.8208 17.7664 92.16 96.8704 162.9184 55.04 44.8-110.8992-10.24-191.9488-31.4368-217.3952a462.9504 462.9504 0 0 1-59.2896 28.3648C505.4976 145.5104 505.5488 226.8672 506.88 247.1424z" fill="#000F04" p-id="1283"></path><path d="M424.96 135.4752s-159.4368 166.912 65.6384 259.4304C551.6288 351.0272 604.16 193.6896 424.96 135.4752z" fill="#BFE5BD" p-id="1284"></path><path d="M537.6 224.4096c-12.0832 4.1984-30.72 17.8688-49.7152 28.9792-22.9888-27.648-71.9872-39.5776-108.1344-44.6976-15.7184 42.3936-17.7664 96.512 36.864 143.36 37.12 9.728 76.8 18.944 94.8224 23.04 29.696-36.0448 49.5104-96.768 26.1632-150.6816z" fill="#A2DD9E" p-id="1285"></path><path d="M490.5984 410.2656a15.36 15.36 0 0 1-5.8368-1.1264C411.3408 378.88 368.64 337.3568 357.5296 285.5936 340.0192 203.264 410.6752 128 413.696 124.8768a15.36 15.36 0 0 1 15.872-3.9936c97.28 31.488 125.3376 88.7296 131.9424 131.2256 10.24 64.6656-24.3712 128.256-61.952 155.2896a15.36 15.36 0 0 1-8.96 2.8672zM429.6704 153.6c-15.36 19.0464-53.504 72.3968-42.0352 125.952 8.3968 39.168 42.4448 72.0384 100.5568 97.6384 27.6992-24.3712 50.2784-73.3696 42.9568-120.3712-7.2192-46.2336-42.24-81.8688-101.4784-103.2192z" fill="#000F04" p-id="1286"></path><path d="M671.2832 609.9456s163.328-90.112 219.2384-17.6128 72.4992 100.4544 92.8256 110.6432c-38.144 54.6816-132.2496 189.44-325.5296 62.3104-97.8944-142.4384 13.4656-155.3408 13.4656-155.3408z" fill="#BFE5BD" p-id="1287"></path><path d="M867.584 807.0656c-53.76 11.776-119.808 17.3568-209.92-41.7792-97.8944-142.4384 13.4656-155.3408 13.4656-155.3408s141.4144-77.9776 206.1312-30.3616c-11.5712 36.1984-37.4784 94.8224-88.832 118.6816 62.7712 14.3872 139.8784 21.1456 194.56 4.7104-13.824 19.8144-35.0208 50.176-65.5872 74.752 0.3584 0-28.7232 24.7808-49.8176 29.3376z" fill="#A2DD9E" p-id="1288"></path><path d="M807.2704 833.5872c-48.896 0-101.7344-18.5344-157.8496-55.5008a14.7456 14.7456 0 0 1-4.2496-4.096c-39.5264-57.4976-51.8656-103.6288-36.6592-137.0624 14.2336-31.2832 47.2064-39.7824 57.7536-41.728 22.0672-11.7248 176.4352-89.9584 236.4416-12.2368 14.592 18.8928 26.7264 35.072 36.5056 48.0768 26.112 34.816 39.2192 52.2752 51.2 58.1632a15.36 15.36 0 0 1 7.9872 9.984 15.36 15.36 0 0 1-2.304 12.544c-14.4384 20.736-36.2496 51.968-68.608 77.9776a15.36 15.36 0 0 1-19.2-23.9616A296.96 296.96 0 0 0 961.8944 706.56c-12.544-10.9056-25.6-28.416-47.2576-57.2416-9.728-12.9024-21.8112-29.0304-36.2496-47.7696-39.3216-50.8928-157.44-1.5872-199.68 21.7088a14.5408 14.5408 0 0 1-5.632 1.792s-27.3408 3.7376-36.6592 24.6272c-7.0144 15.36-6.912 46.08 32.3584 104.2432 71.424 46.336 135.4752 59.6992 190.4128 39.7312a15.36 15.36 0 1 1 10.496 28.8768 181.1456 181.1456 0 0 1-62.4128 11.0592z" fill="#000F04" p-id="1289"></path><path d="M251.6992 485.5296s-188.9792-14.0288-201.6768 247.9616C159.3856 798.3104 319.5904 762.88 319.5904 762.88l139.4176-230.912z" fill="#BFE5BD" p-id="1290"></path><path d="M319.5904 762.88l89.3952-148.0704-38.8608-84.992s-0.4096-5.12-127.4368 44.6976c-0.7168 78.6432-192.6656 159.1296-192.6656 159.1296C159.3856 798.3104 319.5904 762.88 319.5904 762.88z" fill="#A2DD9E" p-id="1291"></path><path d="M218.2144 787.968c-54.3744 0-120.9344-8.5504-176.0256-41.2672a15.36 15.36 0 0 1-7.5264-13.9776c4.6592-96.3584 33.024-168.192 84.224-213.504a195.6352 195.6352 0 0 1 133.9904-49.0496 16.4352 16.4352 0 0 1 2.2016 0.3584l207.3088 46.08a15.36 15.36 0 0 1 9.7792 22.9376L332.8 770.6624a15.36 15.36 0 0 1-9.8304 7.0656 526.7968 526.7968 0 0 1-104.7552 10.24z m-152.32-63.1808c90.368 48.2304 215.04 29.4912 244.0704 24.1664l124.8768-206.7968-185.1904-41.3696A167.5776 167.5776 0 0 0 138.8032 542.72c-42.8544 38.0928-67.1232 99.328-72.9088 182.0672z" fill="#000F04" p-id="1292"></path><path d="M582.8096 271.872c-59.0336 19.3024-153.6 78.848-105.5232 226.3552s223.7952 203.4688 314.0608 130.9696 81.408-195.84 44.4928-259.3792-124.6208-139.8784-253.0304-97.9456z" fill="#ACACEF" p-id="1293"></path><path d="M791.3472 629.1968c90.2656-72.4992 81.408-195.84 44.4928-259.3792a235.1616 235.1616 0 0 0-29.3376-39.936c27.3408 102.4-15.36 151.6544-15.36 151.6544s-31.488 17.3568-40.4992 47.9744c-40.192-44.9536-80.4352-56.32-141.2096-83.4048 11.776-72.3968-54.7328-162.6112-54.8352-162.7648-55.9616 27.5456-118.528 89.344-77.3632 215.04 48.3328 147.3536 223.8464 203.3152 314.112 130.816z" fill="#9E9AEA" p-id="1294"></path><path d="M694.4256 675.84a224.9216 224.9216 0 0 1-63.6928-9.472 252.7744 252.7744 0 0 1-168.0384-163.3792c-22.8352-69.6832-17.9712-128.512 14.4896-174.848 30.0032-42.8032 76.0832-62.7712 100.864-70.8608 65.3824-21.3504 128.9216-15.7184 183.7056 16.384a15.36 15.36 0 1 1-15.36 26.4704c-47.616-27.8528-101.0176-32.4608-158.72-13.6704-21.248 6.912-60.3136 23.808-85.2992 59.3408-26.624 37.9392-30.1568 87.6544-10.496 147.6608a221.7984 221.7984 0 0 0 147.6096 143.616c53.7088 15.9744 106.8544 8.5504 142.2336-19.8656 83.7632-67.2256 73.8816-182.784 40.96-239.7184a217.2416 217.2416 0 0 0-27.4432-37.3248 15.36 15.36 0 0 1 22.7328-20.48 251.4432 251.4432 0 0 1 31.2832 42.5984c39.4752 68.096 50.688 199.68-48.1792 279.0912a168.96 168.96 0 0 1-106.6496 34.4576z" fill="#000F04" p-id="1295"></path><path d="M300.4928 259.84C219.8528 281.6 139.008 373.76 188.6208 500.7872s175.4624 103.0656 220.16 101.12 125.9008-106.24 119.552-192.7168S419.84 227.4816 300.4928 259.84z" fill="#ACACEF" p-id="1296"></path><path d="M408.9856 460.288c-19.1488 10.24-73.984 23.9104-106.3424 0-93.1328-35.84-85.9136-148.224-85.9136-148.48-39.1168 43.4176-59.136 109.2096-28.1088 188.7744 49.5616 127.1296 175.4624 103.0656 220.16 101.12 27.904-1.2288 70.2464-42.5984 96.4096-94.5664a442.5728 442.5728 0 0 1 20.9408-61.44c-34.6112-16.1792-97.9968 4.1984-117.1456 14.592z" fill="#9E9AEA" p-id="1297"></path><path d="M353.9456 620.1856c-58.4192 0-141.1584-15.104-179.6608-113.8176-43.3664-111.3088 6.0416-194.56 66.816-235.52a15.36 15.36 0 1 1 17.152 25.6c-50.8928 34.3552-92.16 104.704-55.3472 199.1168 40.6016 104.0896 137.2672 96.512 189.44 92.16 5.9904-0.4608 11.264-0.8704 15.7696-1.0752 8.704-0.3584 26.4704-9.3184 47.8208-33.3824 31.0784-34.9184 60.7744-92.6208 57.088-142.848-2.9696-40.2432-29.184-82.5856-68.4544-110.3872a163.84 163.84 0 0 0-139.8272-25.2416l-3.072 0.8704a15.36 15.36 0 0 1-8.6528-29.4912l3.6864-1.024a194.0992 194.0992 0 0 1 165.632 29.8496c46.5408 32.9728 77.7216 84.0192 81.3056 133.12 4.6592 63.232-31.9488 128.6656-64.7168 165.5296-14.08 15.7696-41.7792 42.4448-69.4784 43.6736-4.1984 0-9.1136 0.5632-14.6944 0.9728-11.1104 0.8192-25.088 1.8944-40.8064 1.8944z" fill="#000F04" p-id="1298"></path><path d="M564.992 512s-106.8032-55.7568-232.704 35.84-104.2432 312.7808 64.8704 382.72 317.9008-49.5616 315.3408-183.0912-104.6016-221.952-147.5072-235.4688z" fill="#ACACEF" p-id="1299"></path><path d="M454.6048 818.2272c-152.2688-12.7488-149.248-211.8144-147.456-248.32-96.7168 101.0688-66.56 295.8336 90.0096 360.6528 168.96 69.9392 317.9008-49.5616 315.3408-183.0912-59.6992 96.5632-196.1472 117.1456-257.8944 70.7584z" fill="#9E9AEA" p-id="1300"></path><path d="M497.2032 966.5536a277.6064 277.6064 0 0 1-105.9328-21.76 247.1424 247.1424 0 0 1-153.1392-201.2672C228.2496 660.48 261.12 580.7616 323.2768 535.3984c126.0544-91.6992 233.8816-44.1344 247.552-37.4784a118.7328 118.7328 0 0 1 21.5552 10.24 15.36 15.36 0 0 1-15.36 26.5216 79.5136 79.5136 0 0 0-16.4352-7.6288 22.528 22.528 0 0 1-2.56-1.0752c-3.9936-2.048-100.4544-50.0224-216.5248 34.4064-53.4528 38.8608-81.3056 107.52-72.7552 179.6608A216.7808 216.7808 0 0 0 403.0464 916.48c74.1888 30.72 151.1936 24.7296 211.3024-16.2816 52.992-36.1472 83.9168-93.0816 82.7904-152.32-1.5872-82.7904-43.8272-141.9264-68.864-169.7792a15.36 15.36 0 1 1 22.8352-20.48c27.904 31.0272 75.008 97.28 76.8 189.696 1.3312 69.632-34.6112 136.2944-96.1536 178.2784a236.6464 236.6464 0 0 1-134.5536 40.96z" fill="#000F04" p-id="1301"></path><path d="M444.2112 883.3024a43.008 43.008 0 1 1 43.008-43.008 43.0592 43.0592 0 0 1-43.008 43.008z m0-55.296a12.288 12.288 0 1 0 12.288 12.288 12.288 12.288 0 0 0-12.288-12.288zM284.0064 525.056a47.1552 47.1552 0 1 1 47.104-47.1552 47.2064 47.2064 0 0 1-47.104 47.1552z m0-63.5904a16.4352 16.4352 0 1 0 16.384 16.4352 16.4352 16.4352 0 0 0-16.384-16.4352zM778.5472 568.6272a36.2496 36.2496 0 0 1-9.2672-1.1776 40.1408 40.1408 0 0 1-26.7264-24.1664 58.1632 58.1632 0 0 1-2.2016-36.864c7.168-28.2624 31.1808-45.7728 54.6304-39.7824s36.1472 32.8192 28.928 61.0816c-6.2464 24.5248-25.1904 40.9088-45.3632 40.9088z m7.3216-72.3968c-5.5808 0-13.0048 6.9632-15.7696 17.7664a27.904 27.904 0 0 0 0.768 17.3568 10.24 10.24 0 0 0 5.9904 6.3488c5.7344 1.4848 14.2848-5.7856 17.3056-17.6128s-1.0752-22.2208-6.7584-23.6544a5.12 5.12 0 0 0-1.536-0.2048z m23.1936 27.6992z" fill="#000F04" p-id="1302"></path></svg>